<svg version="1.1" id="Layer_1" xmlns="http://www.w3.org/2000/svg" xmlns:xlink="http://www.w3.org/1999/xlink" x="0px" y="0px"
	 width="100%" viewBox="0 0 512 512" enable-background="new 0 0 512 512" xml:space="preserve">
<path fill="#000000" opacity="1.000000" stroke="none" 
	d="
M145.231750,478.895752 
	C125.472359,468.648712 108.631531,455.552429 97.467285,436.354675 
	C88.317070,420.620270 83.672195,403.232727 80.732262,385.413330 
	C76.118446,357.448273 76.705246,329.333221 79.643288,301.294708 
	C81.245331,286.005981 76.884888,272.414886 70.712082,258.933838 
	C56.692989,228.316910 41.218300,198.450989 24.573425,169.193481 
	C17.811951,157.308487 14.156919,144.955261 18.151772,131.445145 
	C22.539976,116.604759 32.642399,107.204201 47.659904,103.888382 
	C63.750099,100.335716 76.708183,106.392822 87.001587,118.751328 
	C89.887978,122.216812 92.099060,126.151123 94.144035,130.171539 
	C99.277046,140.263046 104.435715,150.341522 110.201660,160.295990 
	C108.516335,152.399323 106.842827,144.500107 105.143173,136.606537 
	C101.889641,121.496315 98.389992,106.434715 95.412422,91.270477 
	C90.771027,67.632736 108.819923,44.358978 132.787170,42.678936 
	C157.313507,40.959705 173.026093,52.421883 179.348633,76.230843 
	C185.963242,101.139687 192.859436,125.973770 199.650528,150.835617 
	C199.769058,151.269562 200.114044,151.641647 200.672882,152.577896 
	C200.672882,123.499931 200.178833,95.006958 200.839462,66.540779 
	C201.312027,46.178799 209.814011,29.601397 229.109711,20.685154 
	C253.736176,9.305657 282.222321,22.080992 291.191559,47.934666 
	C293.946686,55.876301 295.213531,64.054070 295.229675,72.430046 
	C295.277222,97.091270 295.282806,121.752563 295.314056,146.413818 
	C295.314178,146.516342 295.448334,146.618683 295.868286,147.219955 
	C299.200226,133.299347 302.437103,119.767677 305.678406,106.237076 
	C307.730225,97.671921 309.557892,89.044861 311.892975,80.557510 
	C316.535370,63.683666 327.221527,52.349171 344.552490,49.092880 
	C361.244751,45.956604 375.593597,51.337704 385.998962,65.112679 
	C393.787659,75.423622 395.354095,87.400269 392.925568,99.795082 
	C381.553314,157.837555 370.014648,215.847397 358.555237,273.872803 
	C358.174927,275.798370 358.007446,277.765991 357.652527,280.358673 
	C361.099670,279.006317 363.282410,276.791718 365.596069,274.805725 
	C381.780609,260.913391 396.021912,244.885040 412.844360,231.699982 
	C424.083160,222.891266 436.019653,215.357391 450.516632,213.184662 
	C469.243805,210.377914 491.488556,219.332138 496.718445,242.573883 
	C498.543762,250.685516 496.973419,258.440826 493.431122,265.848785 
	C486.393768,280.565826 474.357788,290.868652 462.307404,301.190460 
	C430.007080,328.857422 402.572510,360.336212 383.120178,398.620361 
	C360.575348,442.990753 326.569824,475.143982 278.207825,489.698212 
	C232.848724,503.348755 188.416245,499.618225 145.231750,478.895752 
M61.682434,123.686378 
	C58.061478,122.434174 54.433262,121.213875 50.504120,121.816711 
	C32.743404,124.541695 24.649048,140.439438 33.014824,156.408646 
	C37.033550,164.079880 41.423187,171.555847 45.525276,179.184555 
	C60.435944,206.914047 75.053337,234.778061 86.914253,264.010040 
	C91.591011,275.536224 93.238197,287.200439 92.162476,299.601868 
	C89.580177,329.372070 90.420532,359.036163 95.254204,388.623627 
	C101.310516,425.695038 121.062904,450.774078 157.024002,463.079346 
	C191.631943,474.921539 226.509842,476.129700 261.612427,466.615173 
	C305.758820,454.649353 339.232178,428.917175 358.986511,387.124298 
	C371.039520,361.624603 388.058044,340.262939 409.054108,321.760803 
	C424.809509,307.876862 442.175018,295.924194 457.429962,281.455505 
	C466.369049,272.977142 473.796539,263.532928 476.127167,250.895050 
	C477.969391,240.905899 472.793579,231.662598 463.145782,228.492889 
	C456.304382,226.245193 449.640289,227.352524 443.106995,229.742493 
	C430.664185,234.294250 420.174988,242.000961 410.771027,251.041901 
	C397.684845,263.622833 385.039856,276.664093 372.259949,289.561798 
	C361.401337,300.520538 348.759430,305.868408 332.892761,305.568939 
	C312.155304,305.177521 292.360626,310.649200 273.759796,319.892212 
	C249.524597,331.934998 231.645340,349.957397 222.106842,375.673218 
	C218.994690,384.063538 217.273163,392.795502 215.620193,403.016724 
	C213.406601,395.764923 214.218979,389.914093 214.547989,383.973419 
	C215.426315,368.114166 219.850037,353.337921 228.761337,340.344147 
	C252.741623,305.378021 287.650604,290.878174 328.658905,288.853821 
	C333.955750,288.592346 335.791016,286.934448 336.651276,282.080750 
	C339.954742,263.442047 343.516602,244.848663 347.054626,226.252197 
	C355.189423,183.494629 363.373322,140.746399 371.518738,97.990845 
	C372.591095,92.361900 372.709686,86.745789 370.526550,81.315529 
	C366.163849,70.463753 355.903320,64.280251 343.867584,65.175873 
	C333.982880,65.911430 326.184998,73.401901 323.354584,85.479050 
	C312.620514,131.281158 302.028168,177.116470 291.335480,222.928314 
	C289.361267,231.386581 282.117249,235.567490 276.860291,242.020462 
	C275.274200,239.036240 275.728058,237.003906 275.727020,235.050735 
	C275.698212,180.890823 275.700775,126.730911 275.695709,72.570992 
	C275.695343,68.410583 275.647736,64.282806 274.740875,60.158653 
	C271.402893,44.978382 259.950714,34.615734 245.831512,34.209320 
	C230.393982,33.764961 218.593658,42.641438 214.371857,58.126785 
	C212.791733,63.922558 212.336288,69.913162 212.337311,75.929016 
	C212.345261,122.756500 212.321838,169.584000 212.357407,216.411453 
	C212.363678,224.664642 207.464111,230.833328 204.333054,237.985153 
	C202.302002,236.709259 202.175293,235.122131 201.808411,233.774796 
	C194.379166,206.491898 186.999634,179.195435 179.610611,151.901581 
	C172.917145,127.176979 166.268387,102.440140 159.506485,77.734276 
	C157.217087,69.369537 152.432144,63.023483 143.779099,60.429432 
	C123.573135,54.372002 104.313950,72.481354 108.826096,93.273323 
	C118.303902,136.947021 127.753998,180.626953 137.368607,224.270584 
	C139.284454,232.967178 135.012039,240.230865 133.600754,248.228622 
	C131.095322,247.662949 130.881027,245.990067 130.233627,244.735153 
	C112.057205,209.502518 93.888710,174.265747 75.759018,139.009064 
	C72.581322,132.829407 68.878967,127.186417 61.682434,123.686378 
z"/>
</svg>