<svg version="1.1" id="Layer_1" xmlns="http://www.w3.org/2000/svg" xmlns:xlink="http://www.w3.org/1999/xlink" x="0px" y="0px"
	 width="100%" viewBox="0 0 464 368" enable-background="new 0 0 464 368" xml:space="preserve">
<path fill="#000000" opacity="1.000000" stroke="none" 
	d="
M147.197449,49.171112 
	C176.811066,29.219067 208.900040,16.242687 243.849457,11.116978 
	C269.647522,7.333416 295.018433,8.830967 318.691162,21.631769 
	C338.198700,32.180286 351.153168,48.314400 359.401123,68.563133 
	C360.907349,72.260925 362.420898,75.983231 363.517731,79.812614 
	C364.632538,83.704597 366.425873,84.717110 370.704803,84.275719 
	C395.588226,81.708900 416.982605,88.619415 432.343079,109.343613 
	C447.819794,130.224564 446.335083,158.807297 429.208008,179.150955 
	C427.072357,181.687729 424.801270,184.110474 422.750458,186.409485 
	C422.682587,187.897110 423.558289,188.476135 424.312408,189.107742 
	C441.349396,203.376541 445.927490,222.261780 444.548767,243.412308 
	C443.563629,258.524780 438.397797,271.929840 428.611176,283.524231 
	C421.180267,292.327759 411.753998,298.011353 400.782410,301.222412 
	C398.455780,301.903381 396.469421,302.489288 395.978455,305.435455 
	C391.280212,333.628204 371.985046,347.596924 346.658569,355.262482 
	C326.517059,361.358734 305.793457,362.322815 284.855194,361.569519 
	C262.301880,360.758179 239.985016,358.395569 218.261490,352.223724 
	C172.137772,339.119476 131.928833,316.493774 101.707199,278.265106 
	C95.812668,270.808868 90.537186,262.905273 85.788147,254.664444 
	C84.656342,252.700470 83.663712,251.115982 80.789894,251.747742 
	C61.917412,255.896484 49.616993,245.027649 41.920067,230.711746 
	C32.605267,213.386703 30.420233,194.972107 32.457676,175.523010 
	C35.118076,150.127243 41.337837,125.797272 51.496040,102.430420 
	C58.451797,86.430130 68.794365,73.197227 83.957832,64.240845 
	C97.140030,56.454708 110.840317,54.736561 124.794228,62.360630 
	C127.291832,63.725262 128.960068,63.171749 131.024918,61.508724 
	C136.210602,57.332180 141.597641,53.405643 147.197449,49.171112 
M162.661407,58.216118 
	C155.717697,62.523411 149.031693,67.200264 142.774139,72.455902 
	C126.613350,86.029099 113.141266,101.598763 105.605324,121.737656 
	C97.983658,142.105682 93.112610,163.126266 90.471230,184.649033 
	C88.888390,197.546570 88.453300,210.529678 90.364197,223.480087 
	C92.278694,236.454971 99.526543,246.967957 106.468109,257.499054 
	C130.676224,294.225372 165.456406,316.994110 206.080109,331.659790 
	C238.975769,343.535461 273.202148,346.733612 307.876495,345.475220 
	C321.840759,344.968475 335.740570,342.830780 348.897949,337.635162 
	C363.069855,332.038879 374.714203,323.813690 379.063812,308.057983 
	C380.059418,304.451538 379.195190,303.168488 375.508087,303.097198 
	C369.016998,302.971680 362.520874,302.724792 356.045074,302.269775 
	C342.079102,301.288513 328.235382,299.470490 314.872528,295.060394 
	C313.220398,294.515137 310.968964,294.519958 309.955292,291.970093 
	C311.125244,291.819916 311.921326,291.675262 312.723541,291.620911 
	C336.469086,290.011749 360.183350,287.895905 384.007751,287.608765 
	C390.704193,287.528046 397.270050,286.201080 403.326843,283.191345 
	C419.390411,275.208984 426.446716,261.060181 428.453369,244.248428 
	C430.066315,230.734772 428.187561,217.543488 419.230713,206.432739 
	C414.244354,200.247253 407.617920,196.596085 399.588867,197.630737 
	C384.016602,199.637466 368.467072,201.024872 352.795227,199.276215 
	C343.775543,198.269806 334.875793,196.619507 325.463623,193.823715 
	C328.298035,192.118225 330.627228,191.989120 332.884674,191.770538 
	C353.597595,189.764832 374.185242,186.873352 394.554016,182.615555 
	C410.694122,179.241684 420.432281,168.529892 425.068512,153.385406 
	C429.484070,138.961792 426.385376,125.690529 415.923401,114.509682 
	C403.636902,101.378998 387.893097,97.982010 371.053101,100.582176 
	C359.360107,102.387611 347.896179,102.496910 336.282837,101.315369 
	C317.781036,99.432999 300.231476,94.729813 285.260132,83.069992 
	C274.198517,74.455093 264.929291,63.893600 254.761002,54.305851 
	C254.640778,54.192513 254.836243,53.744392 255.003235,52.731396 
	C269.559021,61.470081 282.966705,71.667877 298.709229,77.787750 
	C314.577240,83.956413 330.979370,86.358490 348.651581,86.653351 
	C342.906921,66.568810 333.565735,49.941933 316.270782,38.863625 
	C295.739044,25.711967 273.016357,23.453474 249.453064,26.566236 
	C218.453400,30.661364 189.859360,41.509941 162.661407,58.216118 
M91.170059,78.641205 
	C78.877670,86.186523 71.108871,97.362793 65.539848,110.363007 
	C57.829533,128.361801 52.456585,147.042450 49.676910,166.397034 
	C47.830261,179.255081 46.585854,192.278961 49.363266,205.144226 
	C51.410664,214.627991 54.779480,223.770874 61.584236,231.045837 
	C65.413223,235.139435 69.998039,237.957565 75.195374,236.275803 
	C69.717102,177.688019 78.682220,123.504684 114.556335,75.401703 
	C106.579529,71.483307 99.141708,74.383842 91.170059,78.641205 
z"/>
<path fill="#000000" opacity="1.000000" stroke="none" 
	d="
M206.244049,187.619339 
	C209.250381,188.278091 211.884079,188.731918 214.417969,189.510590 
	C218.885574,190.883530 221.188477,194.943451 220.068024,199.111786 
	C218.931183,203.341049 215.022430,205.753876 210.380066,204.814987 
	C183.835541,199.446518 157.140884,194.728409 131.196823,186.727539 
	C127.860306,185.698578 124.474136,184.821274 121.168564,183.703400 
	C116.117424,181.995193 113.711639,177.846954 115.010078,173.372604 
	C116.298569,168.932541 120.652893,166.771683 125.860657,168.391388 
	C141.748474,173.332825 157.816772,177.574463 174.080246,181.062408 
	C184.641129,183.327332 195.242966,185.401230 206.244049,187.619339 
z"/>
<path fill="#000000" opacity="1.000000" stroke="none" 
	d="
M188.166626,239.895782 
	C185.669281,246.937668 182.141357,248.761810 175.952667,246.446518 
	C156.613617,239.211456 137.662445,231.147171 120.134018,220.075439 
	C119.290344,219.542526 118.424889,219.044067 117.582062,218.509857 
	C111.877724,214.894333 110.209663,210.500366 112.887848,206.162292 
	C115.473946,201.973389 120.577744,201.338013 126.055313,204.832901 
	C142.967651,215.623642 161.104172,223.840088 179.886749,230.727036 
	C184.109741,232.275452 187.897034,234.230331 188.166626,239.895782 
z"/>
<path fill="#000000" opacity="1.000000" stroke="none" 
	d="
M163.907532,130.830719 
	C172.485184,131.457123 180.599609,132.021317 188.707458,132.668320 
	C194.214233,133.107788 197.497513,136.372406 197.245499,140.998993 
	C197.000610,145.495148 193.645126,148.469437 188.320129,148.332535 
	C170.384720,147.871384 152.504410,146.636490 134.755386,143.885330 
	C132.136246,143.479370 129.489944,143.165131 126.919434,142.545929 
	C120.941628,141.105896 118.745674,137.964661 119.759468,132.627014 
	C120.553917,128.444214 124.380638,126.117104 129.837677,126.793427 
	C138.071503,127.813911 146.278061,129.053223 154.508514,130.102905 
	C157.467850,130.480331 160.462814,130.578278 163.907532,130.830719 
z"/>
</svg>