<svg version="1.1" id="Layer_1" xmlns="http://www.w3.org/2000/svg" xmlns:xlink="http://www.w3.org/1999/xlink" x="0px" y="0px"
	 width="100%" viewBox="0 0 784 1024" enable-background="new 0 0 784 1024" xml:space="preserve">
<path fill="#000000" opacity="1.000000" stroke="none" 
	d="
M544.979126,93.354294 
	C547.781555,112.604965 544.498047,131.254562 543.560059,149.979202 
	C543.087952,159.405304 542.917969,168.846161 542.477112,178.282928 
	C540.922302,211.566223 540.891724,244.893402 541.488892,278.198822 
	C541.848572,298.257874 543.492737,318.290924 544.234741,338.347656 
	C544.526184,346.224213 547.945923,350.888489 554.803284,355.034119 
	C585.973328,373.877777 613.071960,397.668762 636.171570,425.804016 
	C652.069763,445.167969 664.352356,466.708954 673.983093,489.965027 
	C682.930603,511.571198 687.566223,534.009949 690.253967,556.984985 
	C692.752136,578.339600 692.624207,599.775818 691.758545,621.251221 
	C690.255432,658.539246 683.128601,694.754211 671.620728,730.137939 
	C659.043762,768.809143 640.230713,804.171570 614.269714,835.586487 
	C604.520386,847.383911 594.753784,859.193359 582.881226,869.002319 
	C579.932129,871.438782 579.269104,873.706787 581.187866,877.537598 
	C591.379272,897.884521 588.944092,917.503479 575.143616,935.032654 
	C558.578796,956.073181 537.077393,970.459473 511.301697,978.307129 
	C488.105255,985.369507 464.327637,988.310608 440.190033,989.481689 
	C423.862305,990.273865 407.557678,990.616943 391.300751,989.085388 
	C363.971069,986.510681 336.532379,983.776489 311.235840,972.049316 
	C290.983490,962.660706 273.518555,949.377380 261.715302,929.983582 
	C251.906921,913.867493 249.088806,896.492249 255.189255,878.259460 
	C256.264008,875.047363 255.908371,873.263916 253.066345,871.206909 
	C238.489334,860.656006 224.707031,849.107056 212.046356,836.319702 
	C194.225815,818.320801 178.132080,798.875366 163.778656,777.963684 
	C151.876373,760.623169 141.400528,742.489075 132.597000,723.424316 
	C122.616234,701.810120 114.455177,679.661682 110.255646,655.977295 
	C107.175095,638.603821 105.985352,621.434570 107.629227,603.937012 
	C109.118935,588.080505 112.949501,572.866516 119.140648,558.215210 
	C128.684509,535.629761 143.769821,517.258484 162.345444,501.590332 
	C172.159836,493.312073 182.800354,486.171692 193.971130,479.855682 
	C198.050537,477.549164 199.329941,474.920746 197.849152,470.079926 
	C189.679306,443.371918 180.095963,417.177490 170.462509,390.973480 
	C160.893524,364.944824 150.713440,339.144257 141.936935,312.805450 
	C135.001251,291.991119 127.762825,271.278809 122.640732,249.951767 
	C117.047394,226.662552 116.836311,203.324402 123.121422,179.920914 
	C131.401611,149.088455 148.496826,124.473969 175.495209,107.862923 
	C200.878891,92.245346 227.890686,88.606789 254.687225,105.221596 
	C267.530090,113.184639 276.099304,125.128227 281.203766,139.290115 
	C288.754120,160.237808 293.415070,182.092361 301.095917,203.027069 
	C307.448975,220.342819 313.619232,237.718613 320.550720,254.818832 
	C326.858917,270.381439 332.922546,286.043335 339.059509,301.674988 
	C339.783173,303.518341 340.128632,305.539001 342.167694,306.902771 
	C344.088013,305.738007 343.550323,303.780579 343.603424,302.090027 
	C344.309052,279.630188 346.137024,257.262207 348.501068,234.915298 
	C350.615051,214.932053 352.186707,194.889404 353.834564,174.859543 
	C355.222992,157.982635 355.646729,140.949585 360.347900,124.555359 
	C367.112366,100.965828 379.696228,80.908867 397.935608,64.371399 
	C410.791412,52.715221 425.080963,43.551804 441.510223,37.815166 
	C444.075867,36.919327 446.680420,36.679760 449.367432,36.684307 
	C464.700317,36.710247 480.051727,37.147964 495.359741,36.528351 
	C505.633148,36.112526 513.209839,40.919735 520.499451,46.813293 
	C535.166748,58.671543 541.787720,74.893532 544.979126,93.354294 
M551.265259,398.357605 
	C555.228821,430.164886 559.207886,461.970581 562.570679,495.066467 
	C558.241150,492.675812 557.440430,489.811401 556.192444,487.396820 
	C543.731567,463.287811 535.466980,437.665527 528.756409,411.459930 
	C519.515320,375.371857 517.635376,338.433105 516.099670,301.494904 
	C514.764099,269.373413 514.371216,237.231781 515.508545,205.065964 
	C516.385315,180.268387 516.877197,155.466934 518.610535,130.699631 
	C519.538086,117.446587 520.825256,104.081490 517.492615,90.925102 
	C513.629700,75.675606 505.292725,64.403671 489.387329,60.140034 
	C476.713470,56.742657 464.221680,58.183907 452.038666,62.319653 
	C409.970123,76.600601 383.016785,114.152092 381.112640,159.739349 
	C380.383881,177.186874 378.531616,194.604294 376.714203,211.985550 
	C374.012909,237.820053 371.804993,263.689270 370.179138,289.609497 
	C369.209869,305.062286 368.039124,320.514160 367.592987,335.984741 
	C367.166931,350.759613 365.239197,365.663269 368.717560,380.307983 
	C377.587646,417.652863 390.651459,453.666870 403.781128,489.654541 
	C404.548248,491.757202 406.023102,493.792023 405.036469,496.285614 
	C402.366119,495.067871 402.336517,495.089386 401.510651,493.953369 
	C380.360138,464.859619 361.898804,434.196869 349.594238,400.282135 
	C335.557617,361.593262 319.638214,323.670044 304.329590,285.494507 
	C293.235260,257.828308 282.298218,230.101334 272.817444,201.818375 
	C267.628387,186.338516 263.363159,170.595062 258.622101,154.988800 
	C253.348373,137.629120 243.626785,124.370056 224.180328,121.688316 
	C212.701920,120.105392 201.890732,123.152138 192.093781,128.940262 
	C162.054276,146.687881 148.016983,174.117844 145.247070,208.071548 
	C143.499237,229.496613 149.606903,249.685974 155.667969,269.775909 
	C169.337845,315.086060 187.049271,358.971405 203.197189,403.409882 
	C218.212784,444.732269 232.989395,486.103485 236.707108,530.489990 
	C239.507248,563.921326 234.710632,595.494751 217.635635,624.843262 
	C208.758621,640.101196 198.778412,654.711670 190.830673,670.515625 
	C190.225189,671.719604 189.747986,673.466736 185.885986,672.792053 
	C208.733978,618.487061 223.730560,563.340027 206.011978,504.303284 
	C204.976135,504.623810 204.125610,504.710999 203.470734,505.115173 
	C184.606949,516.757751 167.325241,530.216675 154.636307,548.735962 
	C135.574585,576.556152 131.029114,607.693970 134.666595,640.394958 
	C137.894714,669.415833 148.283722,696.248657 161.453888,722.059143 
	C183.521255,765.306152 212.751068,803.021912 249.580048,834.708008 
	C273.006470,854.862976 298.624268,871.432007 328.256287,881.156555 
	C345.819305,886.920288 363.966278,889.043579 382.303436,890.098328 
	C424.571808,892.529724 466.553680,891.009094 507.828522,880.589050 
	C522.067139,876.994446 536.106628,872.614685 548.261963,863.964050 
	C559.576843,855.911499 569.239380,845.951477 578.745178,835.934021 
	C611.921143,800.972412 634.899597,760.047119 648.884033,714.034302 
	C658.709167,681.706848 664.571472,648.645142 665.686584,614.851318 
	C666.268494,597.216492 665.514160,579.611084 664.022156,561.982727 
	C661.007385,526.363403 649.840759,493.684113 630.597778,463.701233 
	C610.684570,432.674103 584.365173,407.900635 554.622375,386.528809 
	C553.472961,385.702911 552.353882,384.446442 550.459167,385.207458 
	C549.407227,389.334503 550.830811,393.379059 551.265259,398.357605 
M488.472198,956.912170 
	C503.364929,953.624573 517.721069,949.037720 530.365051,940.103882 
	C540.318298,933.071228 550.200928,926.016235 556.662292,915.279053 
	C561.398560,907.408508 561.811951,899.419373 558.013672,891.247681 
	C555.835144,890.734985 554.529053,891.994080 553.102173,892.726135 
	C546.721680,895.999695 540.156860,898.841614 533.400879,901.230591 
	C500.538757,912.851257 466.283325,916.309204 431.815491,917.929810 
	C408.690765,919.017029 385.592590,917.861389 362.515472,915.438721 
	C334.967194,912.546753 309.053833,904.887634 284.742065,891.675720 
	C283.339661,890.913574 282.037903,889.636658 280.158020,890.163330 
	C278.737122,891.481567 279.113708,893.258911 279.014954,894.854187 
	C278.082153,909.923584 286.024231,920.835449 296.195862,930.471985 
	C312.741943,946.147583 333.035217,953.962769 355.125885,957.824524 
	C383.110870,962.716553 411.276154,964.337219 439.652344,962.928406 
	C455.805328,962.126587 471.813721,960.372192 488.472198,956.912170 
z"/>
<path fill="#000000" opacity="1.000000" stroke="none" 
	d="
M432.295776,673.218018 
	C442.325653,665.348511 454.182831,673.520386 454.343964,685.100037 
	C454.719086,712.050842 456.370056,738.984558 456.705933,765.935059 
	C457.014709,790.711914 456.335449,815.507935 454.157745,840.218018 
	C453.506439,847.608765 447.423676,852.521606 440.071960,852.225952 
	C433.087036,851.945007 427.573273,846.128174 427.803284,838.465576 
	C428.297516,822.000854 429.350952,805.552307 429.802673,789.086975 
	C430.734772,755.112793 428.570801,721.192017 427.672485,687.249817 
	C427.536255,682.101929 427.952789,677.240234 432.295776,673.218018 
z"/>
<path fill="#000000" opacity="1.000000" stroke="none" 
	d="
M518.061401,813.959412 
	C515.829895,821.003784 513.891724,827.726929 511.532379,834.298828 
	C508.773529,841.983704 501.452026,845.487976 494.411469,842.854065 
	C486.993805,840.079163 483.680511,832.708252 486.277496,824.999084 
	C496.718231,794.005127 504.400238,762.386841 507.842621,729.801575 
	C508.278900,725.671631 509.001831,721.559509 509.821594,717.485291 
	C511.297241,710.151489 517.995789,705.212708 524.676453,706.353027 
	C531.866455,707.580200 537.023560,714.124023 536.030518,721.597168 
	C531.909973,752.605835 527.848328,783.637878 518.061401,813.959412 
z"/>
<path fill="#000000" opacity="1.000000" stroke="none" 
	d="
M353.641418,802.283203 
	C350.453888,783.492126 347.296692,765.141174 344.189819,746.781616 
	C342.799622,738.566284 347.596069,731.520935 355.439880,730.103699 
	C362.181702,728.885559 368.940887,733.820496 370.366364,741.613586 
	C376.197205,773.490967 382.415863,805.318848 384.260712,837.776184 
	C384.392548,840.095642 384.887573,842.393799 385.035675,844.713196 
	C385.587738,853.358643 380.500092,859.866394 372.680969,860.621765 
	C365.126434,861.351685 358.797974,855.524963 357.988190,846.874268 
	C357.182770,838.270203 356.649750,829.640503 355.837372,821.037170 
	C355.259644,814.918396 354.416809,808.824707 353.641418,802.283203 
z"/>
</svg>